<svg xmlns="http://www.w3.org/2000/svg"
     viewBox="0 0 400 620">

  <path fill="#B8664B"
        fill-rule="evenodd"
        d="

M 140 12
C 120 12 105 25 105 40
C 105 52 112 60 125 64
C 96 66 72 79 55 103
C 34 132 27 171 34 219
C 36 234 40 248 46 262
C 29 301 24 353 39 409
C 55 471 90 533 145 586
C 122 596 112 605 112 614
C 112 618 116 620 123 620
L 277 620
C 284 620 288 618 288 614
C 288 605 278 596 255 586
C 310 533 345 471 361 409
C 376 353 371 301 354 262
C 360 248 364 234 366 219
C 373 171 366 132 345 103
C 328 79 304 66 275 64
C 288 60 295 52 295 40
C 295 25 280 12 260 12
Z

M 90 110
C 75 130 68 153 68 183
C 68 208 73 228 83 248
C 102 232 118 221 132 211
C 144 203 151 191 154 175
C 158 151 160 127 162 90
C 151 85 120 88 90 110
Z

M 310 110
C 325 130 332 153 332 183
C 332 208 327 228 317 248
C 298 232 282 221 268 211
C 256 203 249 191 246 175
C 242 151 240 127 238 90
C 249 85 280 88 310 110
Z

"/>
</svg>
