<svg
    xmlns="http://www.w3.org/2000/svg"
    viewBox="0 0 400 620"
    width="400"
    height="620">

    <path
        fill="#B8664B"
        d="

        M 140 12

        C 120 12 105 25 105 40
        C 105 52 112 60 125 64

        C 96 66 72 79 55 103
        C 34 132 27 171 34 219

        C 36 234 40 248 46 262

        C 29 301 24 353 39 409
        C 55 471 90 533 145 586

        C 122 596 112 605 112 614
        C 112 618 116 620 123 620

        L 277 620

        C 284 620 288 618 288 614
        C 288 605 278 596 255 586

        C 310 533 345 471 361 409
        C 376 353 371 301 354 262

        C 360 248 364 234 366 219

        C 373 171 366 132 345 103
        C 328 79 304 66 275 64

        C 288 60 295 52 295 40
        C 295 25 280 12 260 12

        L 140 12

        Z

        M 125 85

        C 108 85 93 92 80 107
        C 67 123 61 145 61 173
        C 61 191 64 209 71 227

        C 88 211 101 201 113 193
        C 123 186 129 177 131 165

        C 134 146 135 129 137 96

        C 133 88 130 85 125 85

        Z

        M 275 85

        C 270 85 267 88 263 96

        C 265 129 266 146 269 165
        C 271 177 277 186 287 193

        C 299 201 312 211 329 227

        C 336 209 339 191 339 173
        C 339 145 333 123 320 107
        C 307 92 292 85 275 85

        Z
        " />
</svg>
